<svg width="353" height="84" viewBox="0 0 353 84" fill="none" xmlns="http://www.w3.org/2000/svg">
<path d="M351.185 -8.56104C336.651 15.5107 320.674 39.3859 298.006 56.543C289.725 62.8102 281.024 68.2166 271.519 72.4339C260.404 77.366 247.812 83.0584 235.357 82.3622C217.351 81.3558 198.579 69.3516 182.883 61.6901C141.748 41.6116 103.971 14.9847 62.0261 -3.4092C45.3201 -10.7352 28.0464 -17.2536 10.5614 -22.4771C3.22078 -24.6701 -3.45873 -26.0478 -11.0872 -25.6748C-33.6605 -24.571 -55.0013 -21.0835 -75.9333 -12.2532C-102.249 -1.1517 -128.361 15.7425 -148.759 35.7553C-155.554 42.422 -163.658 49.1124 -169.395 56.691" stroke="#3A3611" stroke-width="2" stroke-linecap="round"/>
</svg>
