<svg width="476" height="559" viewBox="0 0 476 559" fill="none" xmlns="http://www.w3.org/2000/svg">
<path d="M470.159 560.301C470.842 545.278 474.825 531.536 474.013 516.122C472.538 488.087 452.696 457.947 430.131 441.7C409.445 426.807 384.121 420.333 360.156 412.94C319.281 400.329 278.068 391.407 238.442 374.839C224.767 369.121 211.797 362.138 199.6 353.713C173.249 335.512 157.082 306.168 141.93 278.698C128.375 254.122 118.096 228.616 109.241 202.052C98.8212 170.793 85.681 140.797 71.5851 111.026C56.7711 79.7375 41.1146 46.4811 13.8412 23.9281C2.72216 14.7334 -9.75273 8.34911 -22.1839 1.24561" stroke="#3A3611" stroke-width="2" stroke-linecap="round"/>
</svg>
