<svg width="476" height="560" viewBox="0 0 476 560" fill="none" xmlns="http://www.w3.org/2000/svg">
<path d="M5.84118 560.898C5.15831 545.875 1.17543 532.132 1.98664 516.719C3.46217 488.684 23.3042 458.544 45.869 442.297C66.5546 427.403 91.879 420.93 115.844 413.536C156.719 400.926 197.932 392.004 237.558 375.436C251.233 369.718 264.202 362.735 276.4 354.31C302.751 336.108 318.918 306.764 334.07 279.295C347.625 254.718 357.904 229.213 366.759 202.649C377.179 171.389 390.319 141.394 404.415 111.622C419.229 80.3342 434.885 47.0777 462.159 24.5247C473.278 15.3301 485.753 8.94579 498.184 1.84229" stroke="#3A3611" stroke-width="2" stroke-linecap="round"/>
</svg>
