<svg width="353" height="84" viewBox="0 0 353 84" fill="none" xmlns="http://www.w3.org/2000/svg">
<path d="M1.8147 -8.96436C16.349 15.1073 32.3255 38.9825 54.994 56.1396C63.2745 62.4069 71.9761 67.8133 81.4806 72.0306C92.5959 76.9626 105.188 82.655 117.643 81.9589C135.649 80.9525 154.421 68.9483 170.117 61.2868C211.252 41.2083 249.029 14.5814 290.974 -3.81252C307.68 -11.1385 324.954 -17.657 342.439 -22.8804C349.779 -25.0734 356.459 -26.4512 364.087 -26.0781C386.66 -24.9743 408.001 -21.4868 428.933 -12.6565C455.249 -1.55502 481.361 15.3392 501.759 35.352C508.554 42.0187 516.658 48.7091 522.395 56.2877" stroke="#3A3611" stroke-width="2" stroke-linecap="round"/>
</svg>
